# xmcd
#
# Track frame offsets: 
#        150
#        18030
#        40833
#        62669
#        79965
#        104744
#        131217
#        157247
#        179515
#        198046
#        224625
#        263311
#
# Disc length: 3817 seconds
#
# Revision: 0
# Processed by: cddbd v1.5.2PL0 Copyright (c) Steve Scherf et al.
# Submitted via: ExactAudioCopy v0.99pb5
#
DISCID=aa0ee70c
DTITLE=The Thomas Oliver Band - Baby, I'll Play
DYEAR=2011
DGENRE=Blues
TTITLE0=Goin' Home
TTITLE1=Baby, I'll Play
TTITLE2=Still Insane
TTITLE3=Bad Talkin' Man
TTITLE4=World On A String
TTITLE5=No Sign Of You
TTITLE6=Take My Word
TTITLE7=The Strangest Feeling I'm Home
TTITLE8=One Of These Days
TTITLE9=A Lesson Learned
TTITLE10=Sing Me To Sleep
TTITLE11=Now
EXTD=
EXTT0=
EXTT1=
EXTT2=
EXTT3=
EXTT4=
EXTT5=
EXTT6=
EXTT7=
EXTT8=
EXTT9=
EXTT10=
EXTT11=
PLAYORDER=
